<svg xmlns="http://www.w3.org/2000/svg" version="1.1" xmlns:xlink="http://www.w3.org/1999/xlink" xmlns:svgjs="http://svgjs.dev/svgjs" width="2000" height="303" viewBox="0 0 2000 303"><g transform="matrix(1,0,0,1,-1.2121212121212466,-1.0740660859208049)"><svg viewBox="0 0 396 60" data-background-color="#ffffff" preserveAspectRatio="xMidYMid meet" height="303" width="2000" xmlns="http://www.w3.org/2000/svg" xmlns:xlink="http://www.w3.org/1999/xlink"><g id="tight-bounds" transform="matrix(1,0,0,1,0.2400000000000091,0.2126863536476833)"><svg viewBox="0 0 395.52 59.57462729270464" height="59.57462729270464" width="395.52"><g><svg viewBox="0 0 507.1340062727217 76.3863253720508" height="59.57462729270464" width="395.52"><g><rect width="4.984513496917023" height="66.32676588021776" x="408.5684646516152" y="5.029779745916521" fill="#9970d5" opacity="1" stroke-width="0" stroke="transparent" fill-opacity="1" class="rect-qz-0" data-fill-palette-color="primary" rx="1%" id="qz-0" data-palette-color="#9970d5"></rect></g><g transform="matrix(1,0,0,1,0,10.557010235934666)"><svg viewBox="0 0 395.52 55.272304900181474" height="55.272304900181474" width="395.52"><g id="textblocktransform"><svg viewBox="0 0 395.52 55.272304900181474" height="55.272304900181474" width="395.52" id="textblock"><g><svg viewBox="0 0 395.52 55.272304900181474" height="55.272304900181474" width="395.52"><g transform="matrix(1,0,0,1,0,0)"><svg width="395.52" viewBox="5 -28.75 275.48 38.5" height="55.272304900181474" data-palette-color="#9970d5"><path d="M5-28.75L5-28.75 21-28.75 21-22.85 11.3-22.85 11.3-17.2 21-17.2 21-11.5 11.3-11.5 11.3-5.65 20.8-5.65 20.8 0 5 0 5-28.75ZM23.45-5.65L23.45-5.65 23.45 0 39.45 0 39.45-5.65 23.45-5.65ZM39.45-22.85L39.45-22.85 39.45-28.75 23.25-28.75 23.25-22.85 39.45-22.85ZM31.35-11.5L31.35-11.5 31.35-17.2 23.25-17.2 23.25-11.5 31.35-11.5ZM44.95-3.4L44.95-9.75 50.65-13.2 58.85-13.2 58.85-9.35 51.3-9.35 51.3-5.25 58.85-5.25 58.85 0.05 50.65 0.05 44.95-3.4ZM51.3-15.05L44.95-15.05 44.95-18.5 50.65-22 58.85-22 58.85-17.3 51.3-17.3 51.3-15.05ZM74.95 0.05L74.95-18.5 69.25-22 61.05-22 61.05-17.3 68.6-17.3 68.6-13.2 61.05-13.2 61.05-9.35 68.6-9.35 68.6-5.25 61.25-5.25 61.25 0.05 74.95 0.05ZM113.25-9.7L113.25-3.45 107.55 0 99.5 0 99.5-5.25 107.2-5.25 107.2-9.3 99.65-9.3 99.65-13.2 107.55-13.2 113.25-9.7ZM83.45-12.75L83.45-18.4 89.15-21.85 97.25-21.85 97.25-17.2 89.75-17.2 89.75-13.2 97.25-13.2 97.25-9.3 89.15-9.3 83.45-12.75ZM83.45-6.95L89.75-6.95 89.75-5.25 97.25-5.25 97.25 0 89.15 0 83.45-3.45 83.45-6.95ZM113.25-15.05L107-15.05 107-17.2 99.5-17.2 99.5-21.85 107.55-21.85 113.25-18.4 113.25-15.05ZM121.74-6.35L121.74-21.9 128.04-21.9 128.04-6.9 135.54-6.9 135.54-2.9 127.49-2.9 121.74-6.35ZM121.74 2.25L128.04 2.25 128.04 4.55 135.54 4.55 135.54 9.75 127.49 9.75 121.74 6.3 121.74 2.25ZM145.34-21.9L151.64-21.9 151.64 6.3 145.34 9.75 137.84 9.75 137.84 4.55 145.34 4.55 145.34-2.9 137.84-2.9 137.84-6.9 145.34-6.9 145.34-21.9ZM176.14-28.75L176.14-28.75 192.34-28.75 192.34-23.1 182.64-23.1 182.64-17.2 192.34-17.2 192.34-11.35 182.64-11.35 182.64 0 176.14 0 176.14-28.75ZM210.79-14.75L210.79-14.75 210.79-25.3 204.94-28.75 194.59-28.75 194.59-23.1 204.29-23.1 204.29-17.2 194.59-17.2 194.59-11.35 204.94-11.35 210.79-14.75ZM215.69-3.4L215.69-9.75 221.39-13.2 229.59-13.2 229.59-9.35 222.04-9.35 222.04-5.25 229.59-5.25 229.59 0.05 221.39 0.05 215.69-3.4ZM222.04-15.05L215.69-15.05 215.69-18.5 221.39-22 229.59-22 229.59-17.3 222.04-17.3 222.04-15.05ZM245.69 0.05L245.69-18.5 239.99-22 231.79-22 231.79-17.3 239.34-17.3 239.34-13.2 231.79-13.2 231.79-9.35 239.34-9.35 239.34-5.25 231.99-5.25 231.99 0.05 245.69 0.05ZM250.58-6.35L250.58-21.9 256.88-21.9 256.88-6.9 264.38-6.9 264.38-2.9 256.33-2.9 250.58-6.35ZM250.58 2.25L256.88 2.25 256.88 4.55 264.38 4.55 264.38 9.75 256.33 9.75 250.58 6.3 250.58 2.25ZM274.18-21.9L280.48-21.9 280.48 6.3 274.18 9.75 266.68 9.75 266.68 4.55 274.18 4.55 274.18-2.9 266.68-2.9 266.68-6.9 274.18-6.9 274.18-21.9Z" opacity="1" transform="matrix(1,0,0,1,0,0)" fill="#9970d5" class="wordmark-text-0" data-fill-palette-color="primary" id="text-0"></path></svg></g></svg></g></svg></g></svg></g><g transform="matrix(1,0,0,1,426.6014428001475,0)"><svg viewBox="0 0 80.53256347257424 76.3863253720508" height="76.3863253720508" width="80.53256347257424"><g><svg xmlns="http://www.w3.org/2000/svg" xmlns:xlink="http://www.w3.org/1999/xlink" version="1.1" x="0" y="0" viewBox="5.114000000000003 7.164999999999999 79.77735606849085 75.67000000000002" enable-background="new 0 0 90 90" xml:space="preserve" height="76.3863253720508" width="80.53256347257424" class="icon-icon-0" data-fill-palette-color="accent" id="icon-0"><path d="M61.611 68.798c-0.197 0.246-0.441 0.431-0.658 0.653v4.498c0 1.154-0.928 2.083-2.07 2.083H13.622c-1.144 0-2.083-0.929-2.083-2.083V16.043c0-1.146 0.939-2.075 2.083-2.075h45.261c1.143 0 2.07 0.929 2.07 2.075v16.72l6.434-8.071v-10.38c0-3.939-3.211-7.147-7.15-7.147h-47.97c-3.938 0-7.153 3.208-7.153 7.147v61.373c0 3.943 3.215 7.15 7.153 7.15h47.97c3.939 0 7.15-3.207 7.15-7.15V61.546L61.611 68.798z" fill="#b19dd0" data-fill-palette-color="accent"></path><path d="M52.627 67.384c-1.668 0-3.254-0.736-4.348-1.993L37.642 53.071c-2.067-2.4-1.804-6.026 0.601-8.094 2.399-2.075 6.021-1.812 8.093 0.588l6.109 7.075 22.217-27.854c1.971-2.483 5.578-2.905 8.061-0.913 2.486 1.974 2.895 5.588 0.912 8.063L57.113 65.21c-1.061 1.343-2.664 2.128-4.373 2.174C52.697 67.384 52.66 67.384 52.627 67.384z" fill="#b19dd0" data-fill-palette-color="accent"></path></svg></g></svg></g></svg></g><defs></defs></svg><rect width="395.52" height="59.57462729270464" fill="none" stroke="none" visibility="hidden"></rect></g></svg></g></svg>